<?xml version="1.0" encoding="UTF-8" standalone="no"?>
<!DOCTYPE svg PUBLIC "-//W3C//DTD SVG 1.0//EN" "http://www.w3.org/TR/2001/PR-SVG-20010719/DTD/svg10.dtd">
<svg width="24cm" height="21cm" viewBox="200 58 461 412" xmlns="http://www.w3.org/2000/svg" xmlns:xlink="http://www.w3.org/1999/xlink">
  <g>
    <rect style="fill: #ffda00" x="202" y="65" width="86" height="38"/>
    <rect style="fill: none; fill-opacity:0; stroke-width: 2; stroke: #000000" x="202" y="65" width="86" height="38"/>
    <text font-size="12.7998" style="fill: #000000;text-anchor:middle;font-family:sans-serif;font-style:normal;font-weight:normal" x="245" y="87.9">
      <tspan x="245" y="87.9"></tspan>
    </text>
  </g>
  <g>
    <rect style="fill: #7f7f7f" x="204" y="116" width="83" height="123"/>
    <rect style="fill: none; fill-opacity:0; stroke-width: 2; stroke: #7f7f7f" x="204" y="116" width="83" height="123"/>
    <text font-size="12.7998" style="fill: #000000;text-anchor:middle;font-family:sans-serif;font-style:normal;font-weight:normal" x="245.5" y="181.4">
      <tspan x="245.5" y="181.4"></tspan>
    </text>
  </g>
  <g>
    <rect style="fill: #00ff00" x="401.9" y="124.8" width="86" height="38"/>
    <rect style="fill: none; fill-opacity:0; stroke-width: 2; stroke: #000000" x="401.9" y="124.8" width="86" height="38"/>
    <text font-size="12.7998" style="fill: #000000;text-anchor:middle;font-family:sans-serif;font-style:normal;font-weight:normal" x="444.9" y="147.7">
      <tspan x="444.9" y="147.7"></tspan>
    </text>
  </g>
  <g>
    <rect style="fill: #00ff00" x="399.9" y="342.8" width="86" height="38"/>
    <rect style="fill: none; fill-opacity:0; stroke-width: 2; stroke: #000000" x="399.9" y="342.8" width="86" height="38"/>
    <text font-size="12.7998" style="fill: #000000;text-anchor:middle;font-family:sans-serif;font-style:normal;font-weight:normal" x="442.9" y="365.7">
      <tspan x="442.9" y="365.7"></tspan>
    </text>
  </g>
  <g>
    <rect style="fill: #ffda00" x="202.9" y="246.8" width="86" height="38"/>
    <rect style="fill: none; fill-opacity:0; stroke-width: 2; stroke: #000000" x="202.9" y="246.8" width="86" height="38"/>
    <text font-size="12.7998" style="fill: #000000;text-anchor:middle;font-family:sans-serif;font-style:normal;font-weight:normal" x="245.9" y="269.7">
      <tspan x="245.9" y="269.7"></tspan>
    </text>
  </g>
  <g>
    <rect style="fill: #7f7f7f" x="204.9" y="293.8" width="83" height="121"/>
    <rect style="fill: none; fill-opacity:0; stroke-width: 2; stroke: #7f7f7f" x="204.9" y="293.8" width="83" height="121"/>
    <text font-size="12.7998" style="fill: #000000;text-anchor:middle;font-family:sans-serif;font-style:normal;font-weight:normal" x="246.4" y="358.2">
      <tspan x="246.4" y="358.2"></tspan>
    </text>
  </g>
  <g>
    <rect style="fill: #ffda00" x="202.9" y="425.8" width="86" height="38"/>
    <rect style="fill: none; fill-opacity:0; stroke-width: 2; stroke: #000000" x="202.9" y="425.8" width="86" height="38"/>
    <text font-size="12.7998" style="fill: #000000;text-anchor:middle;font-family:sans-serif;font-style:normal;font-weight:normal" x="245.9" y="448.7">
      <tspan x="245.9" y="448.7"></tspan>
    </text>
  </g>
  <g>
    <rect style="fill: #7f7f7f" x="402.9" y="169.8" width="83" height="165.2"/>
    <rect style="fill: none; fill-opacity:0; stroke-width: 2; stroke: #7f7f7f" x="402.9" y="169.8" width="83" height="165.2"/>
    <text font-size="12.7998" style="fill: #000000;text-anchor:middle;font-family:sans-serif;font-style:normal;font-weight:normal" x="444.4" y="256.3">
      <tspan x="444.4" y="256.3"></tspan>
    </text>
  </g>
  <g>
    <rect style="fill: #7f7f7f" x="401.9" y="59.8" width="83" height="55.2"/>
    <rect style="fill: none; fill-opacity:0; stroke-width: 2; stroke: #7f7f7f" x="401.9" y="59.8" width="83" height="55.2"/>
    <text font-size="12.7998" style="fill: #000000;text-anchor:middle;font-family:sans-serif;font-style:normal;font-weight:normal" x="443.4" y="91.3">
      <tspan x="443.4" y="91.3"></tspan>
    </text>
  </g>
  <g>
    <rect style="fill: #7f7f7f" x="401.9" y="387.8" width="83" height="74.2"/>
    <rect style="fill: none; fill-opacity:0; stroke-width: 2; stroke: #7f7f7f" x="401.9" y="387.8" width="83" height="74.2"/>
    <text font-size="12.7998" style="fill: #000000;text-anchor:middle;font-family:sans-serif;font-style:normal;font-weight:normal" x="443.4" y="428.8">
      <tspan x="443.4" y="428.8"></tspan>
    </text>
  </g>
  <g>
    <rect style="fill: #ffda00" x="571.9" y="62.8" width="86" height="38"/>
    <rect style="fill: none; fill-opacity:0; stroke-width: 2; stroke: #000000" x="571.9" y="62.8" width="86" height="38"/>
    <text font-size="12.7998" style="fill: #000000;text-anchor:middle;font-family:sans-serif;font-style:normal;font-weight:normal" x="614.9" y="85.7">
      <tspan x="614.9" y="85.7"></tspan>
    </text>
  </g>
  <g>
    <rect style="fill: #00ff00" x="571.9" y="124.8" width="86" height="38"/>
    <rect style="fill: none; fill-opacity:0; stroke-width: 2; stroke: #000000" x="571.9" y="124.8" width="86" height="38"/>
    <text font-size="12.7998" style="fill: #000000;text-anchor:middle;font-family:sans-serif;font-style:normal;font-weight:normal" x="614.9" y="147.7">
      <tspan x="614.9" y="147.7"></tspan>
    </text>
  </g>
  <g>
    <rect style="fill: #7f7f7f" x="571.9" y="168.8" width="88.1" height="65.2"/>
    <rect style="fill: none; fill-opacity:0; stroke-width: 2; stroke: #7f7f7f" x="571.9" y="168.8" width="88.1" height="65.2"/>
    <text font-size="12.7998" style="fill: #000000;text-anchor:middle;font-family:sans-serif;font-style:normal;font-weight:normal" x="615.95" y="205.3">
      <tspan x="615.95" y="205.3"></tspan>
    </text>
  </g>
  <g>
    <rect style="fill: #ffda00" x="571.9" y="242.8" width="86" height="38"/>
    <rect style="fill: none; fill-opacity:0; stroke-width: 2; stroke: #000000" x="571.9" y="242.8" width="86" height="38"/>
    <text font-size="12.7998" style="fill: #000000;text-anchor:middle;font-family:sans-serif;font-style:normal;font-weight:normal" x="614.9" y="265.7">
      <tspan x="614.9" y="265.7"></tspan>
    </text>
  </g>
  <g>
    <rect style="fill: #7f7f7f" x="571.9" y="287.8" width="83" height="46.2"/>
    <rect style="fill: none; fill-opacity:0; stroke-width: 2; stroke: #7f7f7f" x="571.9" y="287.8" width="83" height="46.2"/>
    <text font-size="12.7998" style="fill: #000000;text-anchor:middle;font-family:sans-serif;font-style:normal;font-weight:normal" x="613.4" y="314.8">
      <tspan x="613.4" y="314.8"></tspan>
    </text>
  </g>
  <g>
    <rect style="fill: #00ff00" x="571.9" y="340.8" width="86" height="38"/>
    <rect style="fill: none; fill-opacity:0; stroke-width: 2; stroke: #000000" x="571.9" y="340.8" width="86" height="38"/>
    <text font-size="12.7998" style="fill: #000000;text-anchor:middle;font-family:sans-serif;font-style:normal;font-weight:normal" x="614.9" y="363.7">
      <tspan x="614.9" y="363.7"></tspan>
    </text>
  </g>
  <g>
    <rect style="fill: #7f7f7f" x="571.9" y="385.8" width="83" height="38"/>
    <rect style="fill: none; fill-opacity:0; stroke-width: 2; stroke: #7f7f7f" x="571.9" y="385.8" width="83" height="38"/>
    <text font-size="12.7998" style="fill: #000000;text-anchor:middle;font-family:sans-serif;font-style:normal;font-weight:normal" x="613.4" y="408.7">
      <tspan x="613.4" y="408.7"></tspan>
    </text>
  </g>
  <g>
    <rect style="fill: #ffda00" x="571.9" y="430.8" width="86" height="38"/>
    <rect style="fill: none; fill-opacity:0; stroke-width: 2; stroke: #000000" x="571.9" y="430.8" width="86" height="38"/>
    <text font-size="12.7998" style="fill: #000000;text-anchor:middle;font-family:sans-serif;font-style:normal;font-weight:normal" x="614.9" y="453.7">
      <tspan x="614.9" y="453.7"></tspan>
    </text>
  </g>
</svg>
